G04 #@! TF.FileFunction,Copper,L2,Bot,Signal*
%FSLAX46Y46*%
G04 Gerber Fmt 4.6, Leading zero omitted, Abs format (unit mm)*
G04 Created by KiCad (PCBNEW 4.0.7) date 01/13/18 19:57:49*
%MOMM*%
%LPD*%
G01*
G04 APERTURE LIST*
%ADD10C,0.100000*%
%ADD11R,1.350000X1.350000*%
%ADD12O,1.350000X1.350000*%
%ADD13C,0.600000*%
%ADD14C,0.250000*%
%ADD15C,0.254000*%
G04 APERTURE END LIST*
D10*
X116000000Y-66000000D02*
X116000000Y-67000000D01*
X152000000Y-66000000D02*
X116000000Y-66000000D01*
X152000000Y-102000000D02*
X152000000Y-66000000D01*
X116000000Y-102000000D02*
X152000000Y-102000000D01*
X116000000Y-67000000D02*
X116000000Y-102000000D01*
X125618666Y-99568000D02*
G75*
G03X125618666Y-99568000I-1666666J0D01*
G01*
X121452000Y-99568000D02*
X126452000Y-99568000D01*
X123952000Y-97068000D02*
X123952000Y-102068000D01*
X145430666Y-68580000D02*
G75*
G03X145430666Y-68580000I-1666666J0D01*
G01*
X141264000Y-68580000D02*
X146264000Y-68580000D01*
X143764000Y-66080000D02*
X143764000Y-71080000D01*
D11*
X123952000Y-72644000D03*
D12*
X123952000Y-70644000D03*
X123952000Y-68644000D03*
D11*
X123952000Y-99568000D03*
D12*
X123952000Y-97568000D03*
X123952000Y-95568000D03*
D11*
X143764000Y-95504000D03*
D12*
X143764000Y-97504000D03*
X143764000Y-99504000D03*
D11*
X143764000Y-68580000D03*
D12*
X143764000Y-70580000D03*
X143764000Y-72580000D03*
D11*
X132588000Y-74168000D03*
D12*
X134588000Y-74168000D03*
D11*
X143764000Y-81788000D03*
D12*
X143764000Y-83788000D03*
D11*
X118364000Y-82550000D03*
D12*
X118364000Y-80550000D03*
D11*
X136144000Y-96012000D03*
D12*
X136144000Y-98012000D03*
X134144000Y-96012000D03*
X134144000Y-98012000D03*
X132144000Y-96012000D03*
X132144000Y-98012000D03*
D13*
X126936500Y-84709000D03*
X126936500Y-83121500D03*
X136080500Y-91376500D03*
X127190500Y-85534500D03*
X124142500Y-85534500D03*
X141795500Y-90741500D03*
X141414500Y-98044000D03*
X139827000Y-87185500D03*
X134937500Y-90614500D03*
X132715000Y-78105000D03*
X120523000Y-82296000D03*
X130365500Y-77978000D03*
D14*
X126936500Y-83121500D02*
X126936500Y-83185000D01*
X136144000Y-96012000D02*
X136144000Y-91376500D01*
X136144000Y-91376500D02*
X136080500Y-91376500D01*
X124142500Y-85534500D02*
X127190500Y-85534500D01*
X141795500Y-97663000D02*
X141795500Y-90741500D01*
X141414500Y-98044000D02*
X141795500Y-97663000D01*
X134144000Y-96012000D02*
X134144000Y-87915500D01*
X134874000Y-87185500D02*
X139827000Y-87185500D01*
X134144000Y-87915500D02*
X134874000Y-87185500D01*
X134144000Y-98012000D02*
X134144000Y-98965000D01*
X137477500Y-90614500D02*
X134937500Y-90614500D01*
X139509500Y-92646500D02*
X137477500Y-90614500D01*
X139509500Y-98869500D02*
X139509500Y-92646500D01*
X138493500Y-99885500D02*
X139509500Y-98869500D01*
X135064500Y-99885500D02*
X138493500Y-99885500D01*
X134144000Y-98965000D02*
X135064500Y-99885500D01*
X132144000Y-96012000D02*
X132144000Y-83502000D01*
X132715000Y-82931000D02*
X132715000Y-78105000D01*
X132144000Y-83502000D02*
X132715000Y-82931000D01*
X122428000Y-82296000D02*
X120523000Y-82296000D01*
X126746000Y-77978000D02*
X122428000Y-82296000D01*
X130365500Y-77978000D02*
X126746000Y-77978000D01*
D15*
G36*
X151315000Y-101315000D02*
X116685000Y-101315000D01*
X116685000Y-97568000D01*
X122616336Y-97568000D01*
X122716054Y-98069315D01*
X122917008Y-98370064D01*
X122825559Y-98428910D01*
X122680569Y-98641110D01*
X122629560Y-98893000D01*
X122629560Y-100243000D01*
X122673838Y-100478317D01*
X122812910Y-100694441D01*
X123025110Y-100839431D01*
X123277000Y-100890440D01*
X124627000Y-100890440D01*
X124862317Y-100846162D01*
X125078441Y-100707090D01*
X125223431Y-100494890D01*
X125274440Y-100243000D01*
X125274440Y-98893000D01*
X125230162Y-98657683D01*
X125091090Y-98441559D01*
X124986823Y-98370317D01*
X125006143Y-98341402D01*
X130876080Y-98341402D01*
X131098651Y-98801540D01*
X131480367Y-99141478D01*
X131814600Y-99279910D01*
X132017000Y-99156224D01*
X132017000Y-98139000D01*
X130998910Y-98139000D01*
X130876080Y-98341402D01*
X125006143Y-98341402D01*
X125187946Y-98069315D01*
X125287664Y-97568000D01*
X125187946Y-97066685D01*
X124903974Y-96641690D01*
X124786314Y-96563072D01*
X125081478Y-96231633D01*
X125183074Y-95986336D01*
X130834000Y-95986336D01*
X130834000Y-96037664D01*
X130933718Y-96538979D01*
X131217690Y-96963974D01*
X131315510Y-97029335D01*
X131098651Y-97222460D01*
X130876080Y-97682598D01*
X130998910Y-97885000D01*
X132017000Y-97885000D01*
X132017000Y-97865000D01*
X132271000Y-97865000D01*
X132271000Y-97885000D01*
X132291000Y-97885000D01*
X132291000Y-98139000D01*
X132271000Y-98139000D01*
X132271000Y-99156224D01*
X132473400Y-99279910D01*
X132807633Y-99141478D01*
X133139072Y-98846314D01*
X133217690Y-98963974D01*
X133409257Y-99091975D01*
X133441852Y-99255839D01*
X133606599Y-99502401D01*
X134527099Y-100422901D01*
X134773661Y-100587648D01*
X135064500Y-100645500D01*
X138493500Y-100645500D01*
X138784339Y-100587648D01*
X139030901Y-100422901D01*
X139620402Y-99833400D01*
X142496090Y-99833400D01*
X142634522Y-100167633D01*
X142974460Y-100549349D01*
X143434598Y-100771920D01*
X143637000Y-100649090D01*
X143637000Y-99631000D01*
X143891000Y-99631000D01*
X143891000Y-100649090D01*
X144093402Y-100771920D01*
X144553540Y-100549349D01*
X144893478Y-100167633D01*
X145031910Y-99833400D01*
X144908224Y-99631000D01*
X143891000Y-99631000D01*
X143637000Y-99631000D01*
X142619776Y-99631000D01*
X142496090Y-99833400D01*
X139620402Y-99833400D01*
X140046901Y-99406901D01*
X140211648Y-99160339D01*
X140269500Y-98869500D01*
X140269500Y-98229167D01*
X140479338Y-98229167D01*
X140621383Y-98572943D01*
X140884173Y-98836192D01*
X141227701Y-98978838D01*
X141599667Y-98979162D01*
X141943443Y-98837117D01*
X142206692Y-98574327D01*
X142349338Y-98230799D01*
X142349386Y-98175730D01*
X142497648Y-97953840D01*
X142507731Y-97903147D01*
X142528054Y-98005315D01*
X142812026Y-98430310D01*
X142929686Y-98508928D01*
X142634522Y-98840367D01*
X142496090Y-99174600D01*
X142619776Y-99377000D01*
X143637000Y-99377000D01*
X143637000Y-99357000D01*
X143891000Y-99357000D01*
X143891000Y-99377000D01*
X144908224Y-99377000D01*
X145031910Y-99174600D01*
X144893478Y-98840367D01*
X144598314Y-98508928D01*
X144715974Y-98430310D01*
X144999946Y-98005315D01*
X145099664Y-97504000D01*
X144999946Y-97002685D01*
X144798992Y-96701936D01*
X144890441Y-96643090D01*
X145035431Y-96430890D01*
X145086440Y-96179000D01*
X145086440Y-94829000D01*
X145042162Y-94593683D01*
X144903090Y-94377559D01*
X144690890Y-94232569D01*
X144439000Y-94181560D01*
X143089000Y-94181560D01*
X142853683Y-94225838D01*
X142637559Y-94364910D01*
X142555500Y-94485007D01*
X142555500Y-91303963D01*
X142587692Y-91271827D01*
X142730338Y-90928299D01*
X142730662Y-90556333D01*
X142588617Y-90212557D01*
X142325827Y-89949308D01*
X141982299Y-89806662D01*
X141610333Y-89806338D01*
X141266557Y-89948383D01*
X141003308Y-90211173D01*
X140860662Y-90554701D01*
X140860338Y-90926667D01*
X141002383Y-91270443D01*
X141035500Y-91303618D01*
X141035500Y-97188928D01*
X140885557Y-97250883D01*
X140622308Y-97513673D01*
X140479662Y-97857201D01*
X140479338Y-98229167D01*
X140269500Y-98229167D01*
X140269500Y-92646500D01*
X140211648Y-92355661D01*
X140046901Y-92109099D01*
X138014901Y-90077099D01*
X137768339Y-89912352D01*
X137477500Y-89854500D01*
X135499963Y-89854500D01*
X135467827Y-89822308D01*
X135124299Y-89679662D01*
X134904000Y-89679470D01*
X134904000Y-88230302D01*
X135188802Y-87945500D01*
X139264537Y-87945500D01*
X139296673Y-87977692D01*
X139640201Y-88120338D01*
X140012167Y-88120662D01*
X140355943Y-87978617D01*
X140619192Y-87715827D01*
X140761838Y-87372299D01*
X140762162Y-87000333D01*
X140620117Y-86656557D01*
X140357327Y-86393308D01*
X140013799Y-86250662D01*
X139641833Y-86250338D01*
X139298057Y-86392383D01*
X139264882Y-86425500D01*
X134874000Y-86425500D01*
X134583161Y-86483352D01*
X134336599Y-86648099D01*
X133606599Y-87378099D01*
X133441852Y-87624661D01*
X133384000Y-87915500D01*
X133384000Y-94948901D01*
X133217690Y-95060026D01*
X133144000Y-95170311D01*
X133070310Y-95060026D01*
X132904000Y-94948901D01*
X132904000Y-84117400D01*
X142496090Y-84117400D01*
X142634522Y-84451633D01*
X142974460Y-84833349D01*
X143434598Y-85055920D01*
X143637000Y-84933090D01*
X143637000Y-83915000D01*
X143891000Y-83915000D01*
X143891000Y-84933090D01*
X144093402Y-85055920D01*
X144553540Y-84833349D01*
X144893478Y-84451633D01*
X145031910Y-84117400D01*
X144908224Y-83915000D01*
X143891000Y-83915000D01*
X143637000Y-83915000D01*
X142619776Y-83915000D01*
X142496090Y-84117400D01*
X132904000Y-84117400D01*
X132904000Y-83816802D01*
X133252401Y-83468401D01*
X133417148Y-83221839D01*
X133475000Y-82931000D01*
X133475000Y-81113000D01*
X142441560Y-81113000D01*
X142441560Y-82463000D01*
X142485838Y-82698317D01*
X142624910Y-82914441D01*
X142747113Y-82997939D01*
X142634522Y-83124367D01*
X142496090Y-83458600D01*
X142619776Y-83661000D01*
X143637000Y-83661000D01*
X143637000Y-83641000D01*
X143891000Y-83641000D01*
X143891000Y-83661000D01*
X144908224Y-83661000D01*
X145031910Y-83458600D01*
X144893478Y-83124367D01*
X144780687Y-82997715D01*
X144890441Y-82927090D01*
X145035431Y-82714890D01*
X145086440Y-82463000D01*
X145086440Y-81113000D01*
X145042162Y-80877683D01*
X144903090Y-80661559D01*
X144690890Y-80516569D01*
X144439000Y-80465560D01*
X143089000Y-80465560D01*
X142853683Y-80509838D01*
X142637559Y-80648910D01*
X142492569Y-80861110D01*
X142441560Y-81113000D01*
X133475000Y-81113000D01*
X133475000Y-78667463D01*
X133507192Y-78635327D01*
X133649838Y-78291799D01*
X133650162Y-77919833D01*
X133508117Y-77576057D01*
X133245327Y-77312808D01*
X132901799Y-77170162D01*
X132529833Y-77169838D01*
X132186057Y-77311883D01*
X131922808Y-77574673D01*
X131780162Y-77918201D01*
X131779838Y-78290167D01*
X131921883Y-78633943D01*
X131955000Y-78667118D01*
X131955000Y-82616198D01*
X131606599Y-82964599D01*
X131441852Y-83211161D01*
X131384000Y-83502000D01*
X131384000Y-94948901D01*
X131217690Y-95060026D01*
X130933718Y-95485021D01*
X130834000Y-95986336D01*
X125183074Y-95986336D01*
X125219910Y-95897400D01*
X125096224Y-95695000D01*
X124079000Y-95695000D01*
X124079000Y-95715000D01*
X123825000Y-95715000D01*
X123825000Y-95695000D01*
X122807776Y-95695000D01*
X122684090Y-95897400D01*
X122822522Y-96231633D01*
X123117686Y-96563072D01*
X123000026Y-96641690D01*
X122716054Y-97066685D01*
X122616336Y-97568000D01*
X116685000Y-97568000D01*
X116685000Y-95238600D01*
X122684090Y-95238600D01*
X122807776Y-95441000D01*
X123825000Y-95441000D01*
X123825000Y-94422910D01*
X124079000Y-94422910D01*
X124079000Y-95441000D01*
X125096224Y-95441000D01*
X125219910Y-95238600D01*
X125081478Y-94904367D01*
X124741540Y-94522651D01*
X124281402Y-94300080D01*
X124079000Y-94422910D01*
X123825000Y-94422910D01*
X123622598Y-94300080D01*
X123162460Y-94522651D01*
X122822522Y-94904367D01*
X122684090Y-95238600D01*
X116685000Y-95238600D01*
X116685000Y-85719667D01*
X123207338Y-85719667D01*
X123349383Y-86063443D01*
X123612173Y-86326692D01*
X123955701Y-86469338D01*
X124327667Y-86469662D01*
X124671443Y-86327617D01*
X124704618Y-86294500D01*
X126628037Y-86294500D01*
X126660173Y-86326692D01*
X127003701Y-86469338D01*
X127375667Y-86469662D01*
X127719443Y-86327617D01*
X127982692Y-86064827D01*
X128125338Y-85721299D01*
X128125662Y-85349333D01*
X127983617Y-85005557D01*
X127720827Y-84742308D01*
X127377299Y-84599662D01*
X127005333Y-84599338D01*
X126661557Y-84741383D01*
X126628382Y-84774500D01*
X124704963Y-84774500D01*
X124672827Y-84742308D01*
X124329299Y-84599662D01*
X123957333Y-84599338D01*
X123613557Y-84741383D01*
X123350308Y-85004173D01*
X123207662Y-85347701D01*
X123207338Y-85719667D01*
X116685000Y-85719667D01*
X116685000Y-81875000D01*
X117041560Y-81875000D01*
X117041560Y-83225000D01*
X117085838Y-83460317D01*
X117224910Y-83676441D01*
X117437110Y-83821431D01*
X117689000Y-83872440D01*
X119039000Y-83872440D01*
X119274317Y-83828162D01*
X119490441Y-83689090D01*
X119635431Y-83476890D01*
X119686440Y-83225000D01*
X119686440Y-82719803D01*
X119729883Y-82824943D01*
X119992673Y-83088192D01*
X120336201Y-83230838D01*
X120708167Y-83231162D01*
X121051943Y-83089117D01*
X121085118Y-83056000D01*
X122428000Y-83056000D01*
X122718839Y-82998148D01*
X122965401Y-82833401D01*
X127060802Y-78738000D01*
X129803037Y-78738000D01*
X129835173Y-78770192D01*
X130178701Y-78912838D01*
X130550667Y-78913162D01*
X130894443Y-78771117D01*
X131157692Y-78508327D01*
X131300338Y-78164799D01*
X131300662Y-77792833D01*
X131158617Y-77449057D01*
X130895827Y-77185808D01*
X130552299Y-77043162D01*
X130180333Y-77042838D01*
X129836557Y-77184883D01*
X129803382Y-77218000D01*
X126746000Y-77218000D01*
X126455161Y-77275852D01*
X126208599Y-77440599D01*
X122113198Y-81536000D01*
X121085463Y-81536000D01*
X121053327Y-81503808D01*
X120709799Y-81361162D01*
X120337833Y-81360838D01*
X119994057Y-81502883D01*
X119730808Y-81765673D01*
X119686119Y-81873295D01*
X119642162Y-81639683D01*
X119503090Y-81423559D01*
X119380887Y-81340061D01*
X119493478Y-81213633D01*
X119631910Y-80879400D01*
X119508224Y-80677000D01*
X118491000Y-80677000D01*
X118491000Y-80697000D01*
X118237000Y-80697000D01*
X118237000Y-80677000D01*
X117219776Y-80677000D01*
X117096090Y-80879400D01*
X117234522Y-81213633D01*
X117347313Y-81340285D01*
X117237559Y-81410910D01*
X117092569Y-81623110D01*
X117041560Y-81875000D01*
X116685000Y-81875000D01*
X116685000Y-80220600D01*
X117096090Y-80220600D01*
X117219776Y-80423000D01*
X118237000Y-80423000D01*
X118237000Y-79404910D01*
X118491000Y-79404910D01*
X118491000Y-80423000D01*
X119508224Y-80423000D01*
X119631910Y-80220600D01*
X119493478Y-79886367D01*
X119153540Y-79504651D01*
X118693402Y-79282080D01*
X118491000Y-79404910D01*
X118237000Y-79404910D01*
X118034598Y-79282080D01*
X117574460Y-79504651D01*
X117234522Y-79886367D01*
X117096090Y-80220600D01*
X116685000Y-80220600D01*
X116685000Y-70644000D01*
X122616336Y-70644000D01*
X122716054Y-71145315D01*
X122917008Y-71446064D01*
X122825559Y-71504910D01*
X122680569Y-71717110D01*
X122629560Y-71969000D01*
X122629560Y-73319000D01*
X122673838Y-73554317D01*
X122812910Y-73770441D01*
X123025110Y-73915431D01*
X123277000Y-73966440D01*
X124627000Y-73966440D01*
X124862317Y-73922162D01*
X125078441Y-73783090D01*
X125223431Y-73570890D01*
X125239204Y-73493000D01*
X131265560Y-73493000D01*
X131265560Y-74843000D01*
X131309838Y-75078317D01*
X131448910Y-75294441D01*
X131661110Y-75439431D01*
X131913000Y-75490440D01*
X133263000Y-75490440D01*
X133498317Y-75446162D01*
X133714441Y-75307090D01*
X133785683Y-75202823D01*
X134086685Y-75403946D01*
X134588000Y-75503664D01*
X135089315Y-75403946D01*
X135514310Y-75119974D01*
X135798282Y-74694979D01*
X135898000Y-74193664D01*
X135898000Y-74142336D01*
X135798282Y-73641021D01*
X135514310Y-73216026D01*
X135089315Y-72932054D01*
X134975426Y-72909400D01*
X142496090Y-72909400D01*
X142634522Y-73243633D01*
X142974460Y-73625349D01*
X143434598Y-73847920D01*
X143637000Y-73725090D01*
X143637000Y-72707000D01*
X143891000Y-72707000D01*
X143891000Y-73725090D01*
X144093402Y-73847920D01*
X144553540Y-73625349D01*
X144893478Y-73243633D01*
X145031910Y-72909400D01*
X144908224Y-72707000D01*
X143891000Y-72707000D01*
X143637000Y-72707000D01*
X142619776Y-72707000D01*
X142496090Y-72909400D01*
X134975426Y-72909400D01*
X134588000Y-72832336D01*
X134086685Y-72932054D01*
X133785936Y-73133008D01*
X133727090Y-73041559D01*
X133514890Y-72896569D01*
X133263000Y-72845560D01*
X131913000Y-72845560D01*
X131677683Y-72889838D01*
X131461559Y-73028910D01*
X131316569Y-73241110D01*
X131265560Y-73493000D01*
X125239204Y-73493000D01*
X125274440Y-73319000D01*
X125274440Y-71969000D01*
X125230162Y-71733683D01*
X125091090Y-71517559D01*
X124986823Y-71446317D01*
X125187946Y-71145315D01*
X125287664Y-70644000D01*
X125274934Y-70580000D01*
X142428336Y-70580000D01*
X142528054Y-71081315D01*
X142812026Y-71506310D01*
X142929686Y-71584928D01*
X142634522Y-71916367D01*
X142496090Y-72250600D01*
X142619776Y-72453000D01*
X143637000Y-72453000D01*
X143637000Y-72433000D01*
X143891000Y-72433000D01*
X143891000Y-72453000D01*
X144908224Y-72453000D01*
X145031910Y-72250600D01*
X144893478Y-71916367D01*
X144598314Y-71584928D01*
X144715974Y-71506310D01*
X144999946Y-71081315D01*
X145099664Y-70580000D01*
X144999946Y-70078685D01*
X144798992Y-69777936D01*
X144890441Y-69719090D01*
X145035431Y-69506890D01*
X145086440Y-69255000D01*
X145086440Y-67905000D01*
X145042162Y-67669683D01*
X144903090Y-67453559D01*
X144690890Y-67308569D01*
X144439000Y-67257560D01*
X143089000Y-67257560D01*
X142853683Y-67301838D01*
X142637559Y-67440910D01*
X142492569Y-67653110D01*
X142441560Y-67905000D01*
X142441560Y-69255000D01*
X142485838Y-69490317D01*
X142624910Y-69706441D01*
X142729177Y-69777683D01*
X142528054Y-70078685D01*
X142428336Y-70580000D01*
X125274934Y-70580000D01*
X125187946Y-70142685D01*
X124903974Y-69717690D01*
X124786314Y-69639072D01*
X125081478Y-69307633D01*
X125219910Y-68973400D01*
X125096224Y-68771000D01*
X124079000Y-68771000D01*
X124079000Y-68791000D01*
X123825000Y-68791000D01*
X123825000Y-68771000D01*
X122807776Y-68771000D01*
X122684090Y-68973400D01*
X122822522Y-69307633D01*
X123117686Y-69639072D01*
X123000026Y-69717690D01*
X122716054Y-70142685D01*
X122616336Y-70644000D01*
X116685000Y-70644000D01*
X116685000Y-68314600D01*
X122684090Y-68314600D01*
X122807776Y-68517000D01*
X123825000Y-68517000D01*
X123825000Y-67498910D01*
X124079000Y-67498910D01*
X124079000Y-68517000D01*
X125096224Y-68517000D01*
X125219910Y-68314600D01*
X125081478Y-67980367D01*
X124741540Y-67598651D01*
X124281402Y-67376080D01*
X124079000Y-67498910D01*
X123825000Y-67498910D01*
X123622598Y-67376080D01*
X123162460Y-67598651D01*
X122822522Y-67980367D01*
X122684090Y-68314600D01*
X116685000Y-68314600D01*
X116685000Y-66685000D01*
X151315000Y-66685000D01*
X151315000Y-101315000D01*
X151315000Y-101315000D01*
G37*
X151315000Y-101315000D02*
X116685000Y-101315000D01*
X116685000Y-97568000D01*
X122616336Y-97568000D01*
X122716054Y-98069315D01*
X122917008Y-98370064D01*
X122825559Y-98428910D01*
X122680569Y-98641110D01*
X122629560Y-98893000D01*
X122629560Y-100243000D01*
X122673838Y-100478317D01*
X122812910Y-100694441D01*
X123025110Y-100839431D01*
X123277000Y-100890440D01*
X124627000Y-100890440D01*
X124862317Y-100846162D01*
X125078441Y-100707090D01*
X125223431Y-100494890D01*
X125274440Y-100243000D01*
X125274440Y-98893000D01*
X125230162Y-98657683D01*
X125091090Y-98441559D01*
X124986823Y-98370317D01*
X125006143Y-98341402D01*
X130876080Y-98341402D01*
X131098651Y-98801540D01*
X131480367Y-99141478D01*
X131814600Y-99279910D01*
X132017000Y-99156224D01*
X132017000Y-98139000D01*
X130998910Y-98139000D01*
X130876080Y-98341402D01*
X125006143Y-98341402D01*
X125187946Y-98069315D01*
X125287664Y-97568000D01*
X125187946Y-97066685D01*
X124903974Y-96641690D01*
X124786314Y-96563072D01*
X125081478Y-96231633D01*
X125183074Y-95986336D01*
X130834000Y-95986336D01*
X130834000Y-96037664D01*
X130933718Y-96538979D01*
X131217690Y-96963974D01*
X131315510Y-97029335D01*
X131098651Y-97222460D01*
X130876080Y-97682598D01*
X130998910Y-97885000D01*
X132017000Y-97885000D01*
X132017000Y-97865000D01*
X132271000Y-97865000D01*
X132271000Y-97885000D01*
X132291000Y-97885000D01*
X132291000Y-98139000D01*
X132271000Y-98139000D01*
X132271000Y-99156224D01*
X132473400Y-99279910D01*
X132807633Y-99141478D01*
X133139072Y-98846314D01*
X133217690Y-98963974D01*
X133409257Y-99091975D01*
X133441852Y-99255839D01*
X133606599Y-99502401D01*
X134527099Y-100422901D01*
X134773661Y-100587648D01*
X135064500Y-100645500D01*
X138493500Y-100645500D01*
X138784339Y-100587648D01*
X139030901Y-100422901D01*
X139620402Y-99833400D01*
X142496090Y-99833400D01*
X142634522Y-100167633D01*
X142974460Y-100549349D01*
X143434598Y-100771920D01*
X143637000Y-100649090D01*
X143637000Y-99631000D01*
X143891000Y-99631000D01*
X143891000Y-100649090D01*
X144093402Y-100771920D01*
X144553540Y-100549349D01*
X144893478Y-100167633D01*
X145031910Y-99833400D01*
X144908224Y-99631000D01*
X143891000Y-99631000D01*
X143637000Y-99631000D01*
X142619776Y-99631000D01*
X142496090Y-99833400D01*
X139620402Y-99833400D01*
X140046901Y-99406901D01*
X140211648Y-99160339D01*
X140269500Y-98869500D01*
X140269500Y-98229167D01*
X140479338Y-98229167D01*
X140621383Y-98572943D01*
X140884173Y-98836192D01*
X141227701Y-98978838D01*
X141599667Y-98979162D01*
X141943443Y-98837117D01*
X142206692Y-98574327D01*
X142349338Y-98230799D01*
X142349386Y-98175730D01*
X142497648Y-97953840D01*
X142507731Y-97903147D01*
X142528054Y-98005315D01*
X142812026Y-98430310D01*
X142929686Y-98508928D01*
X142634522Y-98840367D01*
X142496090Y-99174600D01*
X142619776Y-99377000D01*
X143637000Y-99377000D01*
X143637000Y-99357000D01*
X143891000Y-99357000D01*
X143891000Y-99377000D01*
X144908224Y-99377000D01*
X145031910Y-99174600D01*
X144893478Y-98840367D01*
X144598314Y-98508928D01*
X144715974Y-98430310D01*
X144999946Y-98005315D01*
X145099664Y-97504000D01*
X144999946Y-97002685D01*
X144798992Y-96701936D01*
X144890441Y-96643090D01*
X145035431Y-96430890D01*
X145086440Y-96179000D01*
X145086440Y-94829000D01*
X145042162Y-94593683D01*
X144903090Y-94377559D01*
X144690890Y-94232569D01*
X144439000Y-94181560D01*
X143089000Y-94181560D01*
X142853683Y-94225838D01*
X142637559Y-94364910D01*
X142555500Y-94485007D01*
X142555500Y-91303963D01*
X142587692Y-91271827D01*
X142730338Y-90928299D01*
X142730662Y-90556333D01*
X142588617Y-90212557D01*
X142325827Y-89949308D01*
X141982299Y-89806662D01*
X141610333Y-89806338D01*
X141266557Y-89948383D01*
X141003308Y-90211173D01*
X140860662Y-90554701D01*
X140860338Y-90926667D01*
X141002383Y-91270443D01*
X141035500Y-91303618D01*
X141035500Y-97188928D01*
X140885557Y-97250883D01*
X140622308Y-97513673D01*
X140479662Y-97857201D01*
X140479338Y-98229167D01*
X140269500Y-98229167D01*
X140269500Y-92646500D01*
X140211648Y-92355661D01*
X140046901Y-92109099D01*
X138014901Y-90077099D01*
X137768339Y-89912352D01*
X137477500Y-89854500D01*
X135499963Y-89854500D01*
X135467827Y-89822308D01*
X135124299Y-89679662D01*
X134904000Y-89679470D01*
X134904000Y-88230302D01*
X135188802Y-87945500D01*
X139264537Y-87945500D01*
X139296673Y-87977692D01*
X139640201Y-88120338D01*
X140012167Y-88120662D01*
X140355943Y-87978617D01*
X140619192Y-87715827D01*
X140761838Y-87372299D01*
X140762162Y-87000333D01*
X140620117Y-86656557D01*
X140357327Y-86393308D01*
X140013799Y-86250662D01*
X139641833Y-86250338D01*
X139298057Y-86392383D01*
X139264882Y-86425500D01*
X134874000Y-86425500D01*
X134583161Y-86483352D01*
X134336599Y-86648099D01*
X133606599Y-87378099D01*
X133441852Y-87624661D01*
X133384000Y-87915500D01*
X133384000Y-94948901D01*
X133217690Y-95060026D01*
X133144000Y-95170311D01*
X133070310Y-95060026D01*
X132904000Y-94948901D01*
X132904000Y-84117400D01*
X142496090Y-84117400D01*
X142634522Y-84451633D01*
X142974460Y-84833349D01*
X143434598Y-85055920D01*
X143637000Y-84933090D01*
X143637000Y-83915000D01*
X143891000Y-83915000D01*
X143891000Y-84933090D01*
X144093402Y-85055920D01*
X144553540Y-84833349D01*
X144893478Y-84451633D01*
X145031910Y-84117400D01*
X144908224Y-83915000D01*
X143891000Y-83915000D01*
X143637000Y-83915000D01*
X142619776Y-83915000D01*
X142496090Y-84117400D01*
X132904000Y-84117400D01*
X132904000Y-83816802D01*
X133252401Y-83468401D01*
X133417148Y-83221839D01*
X133475000Y-82931000D01*
X133475000Y-81113000D01*
X142441560Y-81113000D01*
X142441560Y-82463000D01*
X142485838Y-82698317D01*
X142624910Y-82914441D01*
X142747113Y-82997939D01*
X142634522Y-83124367D01*
X142496090Y-83458600D01*
X142619776Y-83661000D01*
X143637000Y-83661000D01*
X143637000Y-83641000D01*
X143891000Y-83641000D01*
X143891000Y-83661000D01*
X144908224Y-83661000D01*
X145031910Y-83458600D01*
X144893478Y-83124367D01*
X144780687Y-82997715D01*
X144890441Y-82927090D01*
X145035431Y-82714890D01*
X145086440Y-82463000D01*
X145086440Y-81113000D01*
X145042162Y-80877683D01*
X144903090Y-80661559D01*
X144690890Y-80516569D01*
X144439000Y-80465560D01*
X143089000Y-80465560D01*
X142853683Y-80509838D01*
X142637559Y-80648910D01*
X142492569Y-80861110D01*
X142441560Y-81113000D01*
X133475000Y-81113000D01*
X133475000Y-78667463D01*
X133507192Y-78635327D01*
X133649838Y-78291799D01*
X133650162Y-77919833D01*
X133508117Y-77576057D01*
X133245327Y-77312808D01*
X132901799Y-77170162D01*
X132529833Y-77169838D01*
X132186057Y-77311883D01*
X131922808Y-77574673D01*
X131780162Y-77918201D01*
X131779838Y-78290167D01*
X131921883Y-78633943D01*
X131955000Y-78667118D01*
X131955000Y-82616198D01*
X131606599Y-82964599D01*
X131441852Y-83211161D01*
X131384000Y-83502000D01*
X131384000Y-94948901D01*
X131217690Y-95060026D01*
X130933718Y-95485021D01*
X130834000Y-95986336D01*
X125183074Y-95986336D01*
X125219910Y-95897400D01*
X125096224Y-95695000D01*
X124079000Y-95695000D01*
X124079000Y-95715000D01*
X123825000Y-95715000D01*
X123825000Y-95695000D01*
X122807776Y-95695000D01*
X122684090Y-95897400D01*
X122822522Y-96231633D01*
X123117686Y-96563072D01*
X123000026Y-96641690D01*
X122716054Y-97066685D01*
X122616336Y-97568000D01*
X116685000Y-97568000D01*
X116685000Y-95238600D01*
X122684090Y-95238600D01*
X122807776Y-95441000D01*
X123825000Y-95441000D01*
X123825000Y-94422910D01*
X124079000Y-94422910D01*
X124079000Y-95441000D01*
X125096224Y-95441000D01*
X125219910Y-95238600D01*
X125081478Y-94904367D01*
X124741540Y-94522651D01*
X124281402Y-94300080D01*
X124079000Y-94422910D01*
X123825000Y-94422910D01*
X123622598Y-94300080D01*
X123162460Y-94522651D01*
X122822522Y-94904367D01*
X122684090Y-95238600D01*
X116685000Y-95238600D01*
X116685000Y-85719667D01*
X123207338Y-85719667D01*
X123349383Y-86063443D01*
X123612173Y-86326692D01*
X123955701Y-86469338D01*
X124327667Y-86469662D01*
X124671443Y-86327617D01*
X124704618Y-86294500D01*
X126628037Y-86294500D01*
X126660173Y-86326692D01*
X127003701Y-86469338D01*
X127375667Y-86469662D01*
X127719443Y-86327617D01*
X127982692Y-86064827D01*
X128125338Y-85721299D01*
X128125662Y-85349333D01*
X127983617Y-85005557D01*
X127720827Y-84742308D01*
X127377299Y-84599662D01*
X127005333Y-84599338D01*
X126661557Y-84741383D01*
X126628382Y-84774500D01*
X124704963Y-84774500D01*
X124672827Y-84742308D01*
X124329299Y-84599662D01*
X123957333Y-84599338D01*
X123613557Y-84741383D01*
X123350308Y-85004173D01*
X123207662Y-85347701D01*
X123207338Y-85719667D01*
X116685000Y-85719667D01*
X116685000Y-81875000D01*
X117041560Y-81875000D01*
X117041560Y-83225000D01*
X117085838Y-83460317D01*
X117224910Y-83676441D01*
X117437110Y-83821431D01*
X117689000Y-83872440D01*
X119039000Y-83872440D01*
X119274317Y-83828162D01*
X119490441Y-83689090D01*
X119635431Y-83476890D01*
X119686440Y-83225000D01*
X119686440Y-82719803D01*
X119729883Y-82824943D01*
X119992673Y-83088192D01*
X120336201Y-83230838D01*
X120708167Y-83231162D01*
X121051943Y-83089117D01*
X121085118Y-83056000D01*
X122428000Y-83056000D01*
X122718839Y-82998148D01*
X122965401Y-82833401D01*
X127060802Y-78738000D01*
X129803037Y-78738000D01*
X129835173Y-78770192D01*
X130178701Y-78912838D01*
X130550667Y-78913162D01*
X130894443Y-78771117D01*
X131157692Y-78508327D01*
X131300338Y-78164799D01*
X131300662Y-77792833D01*
X131158617Y-77449057D01*
X130895827Y-77185808D01*
X130552299Y-77043162D01*
X130180333Y-77042838D01*
X129836557Y-77184883D01*
X129803382Y-77218000D01*
X126746000Y-77218000D01*
X126455161Y-77275852D01*
X126208599Y-77440599D01*
X122113198Y-81536000D01*
X121085463Y-81536000D01*
X121053327Y-81503808D01*
X120709799Y-81361162D01*
X120337833Y-81360838D01*
X119994057Y-81502883D01*
X119730808Y-81765673D01*
X119686119Y-81873295D01*
X119642162Y-81639683D01*
X119503090Y-81423559D01*
X119380887Y-81340061D01*
X119493478Y-81213633D01*
X119631910Y-80879400D01*
X119508224Y-80677000D01*
X118491000Y-80677000D01*
X118491000Y-80697000D01*
X118237000Y-80697000D01*
X118237000Y-80677000D01*
X117219776Y-80677000D01*
X117096090Y-80879400D01*
X117234522Y-81213633D01*
X117347313Y-81340285D01*
X117237559Y-81410910D01*
X117092569Y-81623110D01*
X117041560Y-81875000D01*
X116685000Y-81875000D01*
X116685000Y-80220600D01*
X117096090Y-80220600D01*
X117219776Y-80423000D01*
X118237000Y-80423000D01*
X118237000Y-79404910D01*
X118491000Y-79404910D01*
X118491000Y-80423000D01*
X119508224Y-80423000D01*
X119631910Y-80220600D01*
X119493478Y-79886367D01*
X119153540Y-79504651D01*
X118693402Y-79282080D01*
X118491000Y-79404910D01*
X118237000Y-79404910D01*
X118034598Y-79282080D01*
X117574460Y-79504651D01*
X117234522Y-79886367D01*
X117096090Y-80220600D01*
X116685000Y-80220600D01*
X116685000Y-70644000D01*
X122616336Y-70644000D01*
X122716054Y-71145315D01*
X122917008Y-71446064D01*
X122825559Y-71504910D01*
X122680569Y-71717110D01*
X122629560Y-71969000D01*
X122629560Y-73319000D01*
X122673838Y-73554317D01*
X122812910Y-73770441D01*
X123025110Y-73915431D01*
X123277000Y-73966440D01*
X124627000Y-73966440D01*
X124862317Y-73922162D01*
X125078441Y-73783090D01*
X125223431Y-73570890D01*
X125239204Y-73493000D01*
X131265560Y-73493000D01*
X131265560Y-74843000D01*
X131309838Y-75078317D01*
X131448910Y-75294441D01*
X131661110Y-75439431D01*
X131913000Y-75490440D01*
X133263000Y-75490440D01*
X133498317Y-75446162D01*
X133714441Y-75307090D01*
X133785683Y-75202823D01*
X134086685Y-75403946D01*
X134588000Y-75503664D01*
X135089315Y-75403946D01*
X135514310Y-75119974D01*
X135798282Y-74694979D01*
X135898000Y-74193664D01*
X135898000Y-74142336D01*
X135798282Y-73641021D01*
X135514310Y-73216026D01*
X135089315Y-72932054D01*
X134975426Y-72909400D01*
X142496090Y-72909400D01*
X142634522Y-73243633D01*
X142974460Y-73625349D01*
X143434598Y-73847920D01*
X143637000Y-73725090D01*
X143637000Y-72707000D01*
X143891000Y-72707000D01*
X143891000Y-73725090D01*
X144093402Y-73847920D01*
X144553540Y-73625349D01*
X144893478Y-73243633D01*
X145031910Y-72909400D01*
X144908224Y-72707000D01*
X143891000Y-72707000D01*
X143637000Y-72707000D01*
X142619776Y-72707000D01*
X142496090Y-72909400D01*
X134975426Y-72909400D01*
X134588000Y-72832336D01*
X134086685Y-72932054D01*
X133785936Y-73133008D01*
X133727090Y-73041559D01*
X133514890Y-72896569D01*
X133263000Y-72845560D01*
X131913000Y-72845560D01*
X131677683Y-72889838D01*
X131461559Y-73028910D01*
X131316569Y-73241110D01*
X131265560Y-73493000D01*
X125239204Y-73493000D01*
X125274440Y-73319000D01*
X125274440Y-71969000D01*
X125230162Y-71733683D01*
X125091090Y-71517559D01*
X124986823Y-71446317D01*
X125187946Y-71145315D01*
X125287664Y-70644000D01*
X125274934Y-70580000D01*
X142428336Y-70580000D01*
X142528054Y-71081315D01*
X142812026Y-71506310D01*
X142929686Y-71584928D01*
X142634522Y-71916367D01*
X142496090Y-72250600D01*
X142619776Y-72453000D01*
X143637000Y-72453000D01*
X143637000Y-72433000D01*
X143891000Y-72433000D01*
X143891000Y-72453000D01*
X144908224Y-72453000D01*
X145031910Y-72250600D01*
X144893478Y-71916367D01*
X144598314Y-71584928D01*
X144715974Y-71506310D01*
X144999946Y-71081315D01*
X145099664Y-70580000D01*
X144999946Y-70078685D01*
X144798992Y-69777936D01*
X144890441Y-69719090D01*
X145035431Y-69506890D01*
X145086440Y-69255000D01*
X145086440Y-67905000D01*
X145042162Y-67669683D01*
X144903090Y-67453559D01*
X144690890Y-67308569D01*
X144439000Y-67257560D01*
X143089000Y-67257560D01*
X142853683Y-67301838D01*
X142637559Y-67440910D01*
X142492569Y-67653110D01*
X142441560Y-67905000D01*
X142441560Y-69255000D01*
X142485838Y-69490317D01*
X142624910Y-69706441D01*
X142729177Y-69777683D01*
X142528054Y-70078685D01*
X142428336Y-70580000D01*
X125274934Y-70580000D01*
X125187946Y-70142685D01*
X124903974Y-69717690D01*
X124786314Y-69639072D01*
X125081478Y-69307633D01*
X125219910Y-68973400D01*
X125096224Y-68771000D01*
X124079000Y-68771000D01*
X124079000Y-68791000D01*
X123825000Y-68791000D01*
X123825000Y-68771000D01*
X122807776Y-68771000D01*
X122684090Y-68973400D01*
X122822522Y-69307633D01*
X123117686Y-69639072D01*
X123000026Y-69717690D01*
X122716054Y-70142685D01*
X122616336Y-70644000D01*
X116685000Y-70644000D01*
X116685000Y-68314600D01*
X122684090Y-68314600D01*
X122807776Y-68517000D01*
X123825000Y-68517000D01*
X123825000Y-67498910D01*
X124079000Y-67498910D01*
X124079000Y-68517000D01*
X125096224Y-68517000D01*
X125219910Y-68314600D01*
X125081478Y-67980367D01*
X124741540Y-67598651D01*
X124281402Y-67376080D01*
X124079000Y-67498910D01*
X123825000Y-67498910D01*
X123622598Y-67376080D01*
X123162460Y-67598651D01*
X122822522Y-67980367D01*
X122684090Y-68314600D01*
X116685000Y-68314600D01*
X116685000Y-66685000D01*
X151315000Y-66685000D01*
X151315000Y-101315000D01*
M02*
