G04 #@! TF.FileFunction,Copper,L1,Top,Signal*
%FSLAX46Y46*%
G04 Gerber Fmt 4.6, Leading zero omitted, Abs format (unit mm)*
G04 Created by KiCad (PCBNEW 4.0.7) date 01/13/18 19:57:49*
%MOMM*%
%LPD*%
G01*
G04 APERTURE LIST*
%ADD10C,0.100000*%
%ADD11R,0.750000X0.800000*%
%ADD12R,0.800000X0.750000*%
%ADD13R,1.350000X1.350000*%
%ADD14O,1.350000X1.350000*%
%ADD15R,1.300000X0.700000*%
%ADD16R,1.600000X0.550000*%
%ADD17R,0.550000X1.600000*%
%ADD18R,2.000000X4.500000*%
%ADD19C,0.600000*%
%ADD20C,0.250000*%
G04 APERTURE END LIST*
D10*
X116000000Y-66000000D02*
X116000000Y-67000000D01*
X152000000Y-66000000D02*
X116000000Y-66000000D01*
X152000000Y-102000000D02*
X152000000Y-66000000D01*
X116000000Y-102000000D02*
X152000000Y-102000000D01*
X116000000Y-67000000D02*
X116000000Y-102000000D01*
X125618666Y-99568000D02*
G75*
G03X125618666Y-99568000I-1666666J0D01*
G01*
X121452000Y-99568000D02*
X126452000Y-99568000D01*
X123952000Y-97068000D02*
X123952000Y-102068000D01*
X145430666Y-68580000D02*
G75*
G03X145430666Y-68580000I-1666666J0D01*
G01*
X141264000Y-68580000D02*
X146264000Y-68580000D01*
X143764000Y-66080000D02*
X143764000Y-71080000D01*
D11*
X140716000Y-83578000D03*
X140716000Y-85078000D03*
D12*
X123202000Y-92456000D03*
X124702000Y-92456000D03*
X123202000Y-75692000D03*
X124702000Y-75692000D03*
D13*
X123952000Y-72644000D03*
D14*
X123952000Y-70644000D03*
X123952000Y-68644000D03*
D13*
X123952000Y-99568000D03*
D14*
X123952000Y-97568000D03*
X123952000Y-95568000D03*
D13*
X143764000Y-95504000D03*
D14*
X143764000Y-97504000D03*
X143764000Y-99504000D03*
D13*
X143764000Y-68580000D03*
D14*
X143764000Y-70580000D03*
X143764000Y-72580000D03*
D13*
X132588000Y-74168000D03*
D14*
X134588000Y-74168000D03*
D13*
X143764000Y-81788000D03*
D14*
X143764000Y-83788000D03*
D13*
X118364000Y-82550000D03*
D14*
X118364000Y-80550000D03*
D15*
X118364000Y-89342000D03*
X118364000Y-87442000D03*
D16*
X128846000Y-81528000D03*
X128846000Y-82328000D03*
X128846000Y-83128000D03*
X128846000Y-83928000D03*
X128846000Y-84728000D03*
X128846000Y-85528000D03*
X128846000Y-86328000D03*
X128846000Y-87128000D03*
D17*
X130296000Y-88578000D03*
X131096000Y-88578000D03*
X131896000Y-88578000D03*
X132696000Y-88578000D03*
X133496000Y-88578000D03*
X134296000Y-88578000D03*
X135096000Y-88578000D03*
X135896000Y-88578000D03*
D16*
X137346000Y-87128000D03*
X137346000Y-86328000D03*
X137346000Y-85528000D03*
X137346000Y-84728000D03*
X137346000Y-83928000D03*
X137346000Y-83128000D03*
X137346000Y-82328000D03*
X137346000Y-81528000D03*
D17*
X135896000Y-80078000D03*
X135096000Y-80078000D03*
X134296000Y-80078000D03*
X133496000Y-80078000D03*
X132696000Y-80078000D03*
X131896000Y-80078000D03*
X131096000Y-80078000D03*
X130296000Y-80078000D03*
D18*
X123952000Y-88578000D03*
X123952000Y-80078000D03*
D13*
X136144000Y-96012000D03*
D14*
X136144000Y-98012000D03*
X134144000Y-96012000D03*
X134144000Y-98012000D03*
X132144000Y-96012000D03*
X132144000Y-98012000D03*
D19*
X126936500Y-84709000D03*
X126936500Y-83121500D03*
X136080500Y-91376500D03*
X127190500Y-85534500D03*
X124142500Y-85534500D03*
X141795500Y-90741500D03*
X141414500Y-98044000D03*
X139827000Y-87185500D03*
X134937500Y-90614500D03*
X132715000Y-78105000D03*
X120523000Y-82296000D03*
X130365500Y-77978000D03*
D20*
X137346000Y-83928000D02*
X139338000Y-83928000D01*
X139688000Y-83578000D02*
X140716000Y-83578000D01*
X139338000Y-83928000D02*
X139688000Y-83578000D01*
X128846000Y-84728000D02*
X126955500Y-84728000D01*
X126955500Y-84728000D02*
X126936500Y-84709000D01*
X128846000Y-83128000D02*
X126943000Y-83128000D01*
X126943000Y-83128000D02*
X126936500Y-83121500D01*
X123202000Y-92456000D02*
X123202000Y-94818000D01*
X123202000Y-94818000D02*
X123952000Y-95568000D01*
X140716000Y-83578000D02*
X142061500Y-83578000D01*
X142271500Y-83788000D02*
X143764000Y-83788000D01*
X142061500Y-83578000D02*
X142271500Y-83788000D01*
X123202000Y-75692000D02*
X119951500Y-75692000D01*
X118364000Y-77279500D02*
X118364000Y-80550000D01*
X119951500Y-75692000D02*
X118364000Y-77279500D01*
X137346000Y-84728000D02*
X139338000Y-84728000D01*
X139688000Y-85078000D02*
X140716000Y-85078000D01*
X139338000Y-84728000D02*
X139688000Y-85078000D01*
X124702000Y-92456000D02*
X124702000Y-91936000D01*
X123952000Y-91186000D02*
X123952000Y-88578000D01*
X124702000Y-91936000D02*
X123952000Y-91186000D01*
X123952000Y-88578000D02*
X125036000Y-88578000D01*
X126486000Y-87128000D02*
X128846000Y-87128000D01*
X125036000Y-88578000D02*
X126486000Y-87128000D01*
X124702000Y-75692000D02*
X124702000Y-76466000D01*
X123952000Y-77216000D02*
X123952000Y-80078000D01*
X124702000Y-76466000D02*
X123952000Y-77216000D01*
X123952000Y-80078000D02*
X123952000Y-83820000D01*
X126460000Y-86328000D02*
X128846000Y-86328000D01*
X123952000Y-83820000D02*
X126460000Y-86328000D01*
X123952000Y-72644000D02*
X126492000Y-72644000D01*
X128846000Y-74998000D02*
X128846000Y-81528000D01*
X126492000Y-72644000D02*
X128846000Y-74998000D01*
X123952000Y-99568000D02*
X129032000Y-99568000D01*
X130296000Y-98304000D02*
X130296000Y-88578000D01*
X129032000Y-99568000D02*
X130296000Y-98304000D01*
X131096000Y-88578000D02*
X131096000Y-92488000D01*
X141986000Y-95504000D02*
X143764000Y-95504000D01*
X140716000Y-94234000D02*
X141986000Y-95504000D01*
X132842000Y-94234000D02*
X140716000Y-94234000D01*
X131096000Y-92488000D02*
X132842000Y-94234000D01*
X143764000Y-68580000D02*
X146875500Y-68580000D01*
X133496000Y-90633500D02*
X133496000Y-88578000D01*
X136144000Y-93281500D02*
X133496000Y-90633500D01*
X146177000Y-93281500D02*
X136144000Y-93281500D01*
X149415500Y-90043000D02*
X146177000Y-93281500D01*
X149415500Y-71120000D02*
X149415500Y-90043000D01*
X146875500Y-68580000D02*
X149415500Y-71120000D01*
X132588000Y-74168000D02*
X132588000Y-76962000D01*
X133496000Y-77870000D02*
X133496000Y-80078000D01*
X132588000Y-76962000D02*
X133496000Y-77870000D01*
X134588000Y-74168000D02*
X134588000Y-77502000D01*
X134296000Y-77794000D02*
X134296000Y-80078000D01*
X134588000Y-77502000D02*
X134296000Y-77794000D01*
X135896000Y-91192000D02*
X135896000Y-88578000D01*
X136080500Y-91376500D02*
X135896000Y-91192000D01*
X118364000Y-89342000D02*
X119763500Y-89342000D01*
X127197000Y-85528000D02*
X128846000Y-85528000D01*
X127190500Y-85534500D02*
X127197000Y-85528000D01*
X122110500Y-85534500D02*
X124142500Y-85534500D01*
X121158000Y-86487000D02*
X122110500Y-85534500D01*
X121158000Y-87947500D02*
X121158000Y-86487000D01*
X119763500Y-89342000D02*
X121158000Y-87947500D01*
X136144000Y-98012000D02*
X141382500Y-98012000D01*
X144304000Y-88233000D02*
X144304000Y-86328000D01*
X141795500Y-90741500D02*
X144304000Y-88233000D01*
X141382500Y-98012000D02*
X141414500Y-98044000D01*
X128846000Y-83928000D02*
X130346500Y-83928000D01*
X130683000Y-84264500D02*
X130683000Y-85528000D01*
X130346500Y-83928000D02*
X130683000Y-84264500D01*
X137346000Y-86328000D02*
X131540000Y-86328000D01*
X130740000Y-85528000D02*
X130683000Y-85528000D01*
X130683000Y-85528000D02*
X128846000Y-85528000D01*
X131540000Y-86328000D02*
X130740000Y-85528000D01*
X143764000Y-81788000D02*
X145288000Y-81788000D01*
X144304000Y-86328000D02*
X137346000Y-86328000D01*
X146431000Y-84201000D02*
X144304000Y-86328000D01*
X146431000Y-82931000D02*
X146431000Y-84201000D01*
X145288000Y-81788000D02*
X146431000Y-82931000D01*
X139769500Y-87128000D02*
X137346000Y-87128000D01*
X139827000Y-87185500D02*
X139769500Y-87128000D01*
X135096000Y-90456000D02*
X135096000Y-88578000D01*
X134937500Y-90614500D02*
X135096000Y-90456000D01*
X132696000Y-78124000D02*
X132696000Y-80078000D01*
X132715000Y-78105000D02*
X132696000Y-78124000D01*
X130296000Y-80078000D02*
X130296000Y-78047500D01*
X120269000Y-82550000D02*
X118364000Y-82550000D01*
X120523000Y-82296000D02*
X120269000Y-82550000D01*
X130296000Y-78047500D02*
X130365500Y-77978000D01*
X118364000Y-87442000D02*
X118364000Y-82550000D01*
M02*
